<svg width="600" height="530" xmlns="http://www.w3.org/2000/svg" version="1.1">
 <g>
  <title>Layer 1</title>
  <path d="m136.72,44.03c66.496,49.921 138.02,151.14 164.28,205.46c26.262,-54.316 97.782,-155.54 164.28,-205.46c47.98,-36.021 125.72,-63.892 125.72,24.795c0,17.712 -10.155,148.79 -16.111,170.07c-20.703,73.984 -96.144,92.854 -163.25,81.433c117.3,19.964 147.14,86.092 82.697,152.22c-122.39,125.59 -175.91,-31.511 -189.63,-71.766c-2.514,-7.3797 -3.6904,-10.832 -3.7077,-7.8964c-0.0174,-2.9357 -1.1937,0.51669 -3.7077,7.8964c-13.714,40.255 -67.233,197.36 -189.63,71.766c-64.444,-66.128 -34.605,-132.26 82.697,-152.22c-67.108,11.421 -142.55,-7.4491 -163.25,-81.433c-5.9562,-21.282 -16.111,-152.36 -16.111,-170.07c0,-88.687 77.742,-60.816 125.72,-24.795l0.0034,0z" fill="#ffffff" id="svg_1"/>
 </g>

</svg>