<svg id="svg" xmlns="http://www.w3.org/2000/svg" xmlns:xlink="http://www.w3.org/1999/xlink" width="400" height="400" viewBox="0, 0, 400,400" version="1.1"><g id="svgg"><path id="path0" d="M383.800 25.854 C 378.589 26.401,363.971 31.439,351.340 37.041 C 350.646 37.348,349.926 37.606,349.740 37.614 C 349.553 37.621,348.680 37.975,347.800 38.400 C 346.920 38.825,346.047 39.179,345.860 39.186 C 345.674 39.194,344.864 39.488,344.060 39.841 C 343.257 40.193,342.240 40.635,341.800 40.822 C 340.666 41.304,327.324 46.404,325.400 47.090 C 324.520 47.404,323.260 47.901,322.600 48.194 C 320.629 49.069,290.890 60.800,290.644 60.800 C 290.518 60.800,285.597 62.702,279.708 65.026 C 273.819 67.351,268.640 69.394,268.200 69.568 C 267.760 69.741,266.540 70.269,265.489 70.741 C 264.438 71.214,263.401 71.600,263.185 71.600 C 262.968 71.600,261.938 71.978,260.896 72.440 C 257.598 73.901,257.513 73.935,248.800 77.238 C 245.170 78.614,235.450 82.427,227.200 85.711 C 218.950 88.996,210.130 92.456,207.600 93.400 C 205.070 94.344,198.860 96.770,193.800 98.792 C 188.740 100.813,183.340 102.925,181.800 103.484 C 180.260 104.043,178.280 104.821,177.400 105.214 C 176.052 105.815,171.353 107.656,159.000 112.421 C 157.900 112.846,150.160 115.915,141.800 119.243 C 133.440 122.570,124.980 125.883,123.000 126.604 C 121.020 127.325,115.980 129.272,111.800 130.932 C 107.620 132.591,102.981 134.403,101.491 134.960 C 100.002 135.516,98.202 136.230,97.491 136.547 C 96.242 137.104,81.879 142.750,77.000 144.602 C 75.680 145.103,66.860 148.569,57.400 152.304 C 35.264 161.043,22.610 165.992,20.600 166.699 C 19.720 167.008,18.460 167.494,17.800 167.778 C 17.140 168.061,15.385 168.788,13.900 169.392 C 8.513 171.583,3.220 175.263,1.168 178.246 C -0.555 180.751,-0.641 190.928,1.039 193.444 C 4.953 199.306,9.684 202.182,22.032 206.207 C 26.524 207.672,32.000 209.493,34.200 210.253 C 50.889 216.024,73.330 223.552,78.800 225.215 C 80.450 225.716,81.971 226.278,82.180 226.463 C 82.389 226.649,82.886 226.800,83.285 226.800 C 83.684 226.800,84.323 226.974,84.705 227.186 C 85.451 227.601,100.467 232.767,101.800 233.068 C 102.345 233.190,106.624 230.695,115.200 225.253 C 122.130 220.855,129.690 216.066,132.000 214.611 C 134.310 213.155,138.416 210.532,141.124 208.782 C 143.832 207.032,146.137 205.600,146.246 205.600 C 146.355 205.600,147.469 204.908,148.722 204.062 C 151.127 202.439,159.403 197.163,183.000 182.208 C 190.920 177.189,201.942 170.184,207.493 166.641 C 213.044 163.099,219.524 158.986,221.893 157.503 C 227.465 154.014,232.240 150.988,238.200 147.168 C 242.804 144.218,261.887 132.096,292.600 112.610 C 300.520 107.586,311.877 100.359,317.839 96.552 C 334.684 85.792,339.600 83.923,339.600 88.277 C 339.600 90.640,331.396 99.145,319.000 109.635 C 318.120 110.379,315.238 112.971,312.595 115.394 C 308.022 119.587,304.333 122.900,299.000 127.600 C 297.680 128.763,295.519 130.724,294.198 131.957 C 291.261 134.699,284.448 140.846,282.000 142.962 C 281.010 143.817,279.119 145.526,277.798 146.759 C 275.455 148.945,269.216 154.590,265.595 157.800 C 262.776 160.300,256.479 165.974,253.816 168.415 C 252.487 169.633,248.880 172.863,245.800 175.592 C 242.720 178.321,239.024 181.644,237.586 182.977 C 233.865 186.425,228.084 191.640,225.732 193.668 C 224.628 194.621,221.055 197.830,217.792 200.800 C 214.530 203.770,211.037 206.920,210.032 207.800 C 209.027 208.680,206.043 211.355,203.402 213.745 C 200.761 216.134,195.450 220.903,191.600 224.341 C 187.750 227.780,181.613 233.295,177.962 236.596 C 174.312 239.898,168.192 245.418,164.362 248.862 C 155.287 257.024,155.357 256.948,155.907 258.156 C 156.311 259.042,163.739 265.018,175.200 273.677 C 179.765 277.125,184.853 281.022,191.264 285.979 C 193.099 287.397,197.570 290.803,201.200 293.546 C 204.830 296.289,208.723 299.269,209.850 300.167 C 210.978 301.065,213.138 302.737,214.650 303.882 C 216.163 305.027,221.928 309.437,227.461 313.682 C 249.987 330.962,258.051 337.127,262.623 340.565 C 264.353 341.866,268.565 345.095,271.984 347.741 C 275.403 350.387,281.170 354.799,284.800 357.545 C 288.430 360.291,293.470 364.159,296.000 366.141 C 301.432 370.396,303.666 371.861,305.586 372.427 C 310.707 373.936,311.691 374.099,315.800 374.120 C 327.607 374.178,336.886 366.354,339.190 354.400 C 339.423 353.190,340.158 349.410,340.823 346.000 C 341.488 342.590,342.212 338.720,342.432 337.400 C 342.652 336.080,343.005 334.145,343.216 333.100 C 343.793 330.246,344.352 327.442,344.813 325.100 C 345.677 320.704,346.378 317.239,347.182 313.400 C 347.804 310.424,348.413 307.179,348.644 305.600 C 348.757 304.830,349.007 303.840,349.200 303.400 C 349.393 302.960,349.644 301.970,349.759 301.200 C 350.068 299.118,351.134 293.549,352.055 289.200 C 352.448 287.349,352.918 285.025,353.575 281.700 C 353.782 280.655,354.058 279.260,354.189 278.600 C 354.320 277.940,354.615 276.410,354.846 275.200 C 355.076 273.990,355.416 272.280,355.600 271.400 C 356.273 268.185,357.664 261.021,358.628 255.800 C 359.704 249.975,360.164 247.579,361.200 242.400 C 361.420 241.300,361.771 239.545,361.979 238.500 C 362.426 236.263,363.117 232.922,363.654 230.400 C 363.864 229.410,364.214 227.700,364.431 226.600 C 365.087 223.273,365.606 220.696,366.000 218.800 C 366.206 217.810,366.560 216.055,366.787 214.900 C 367.014 213.745,367.374 211.945,367.587 210.900 C 367.800 209.855,368.160 208.055,368.387 206.900 C 368.614 205.745,368.974 203.945,369.187 202.900 C 369.400 201.855,369.754 200.100,369.974 199.000 C 370.194 197.900,370.554 196.100,370.774 195.000 C 371.633 190.708,371.984 188.917,372.384 186.800 C 372.613 185.590,372.963 183.790,373.163 182.800 C 373.718 180.049,375.385 171.257,376.007 167.800 C 376.205 166.700,376.538 164.990,376.747 164.000 C 376.955 163.010,377.339 161.120,377.600 159.800 C 377.861 158.480,378.246 156.590,378.455 155.600 C 378.665 154.610,379.008 152.945,379.218 151.900 C 379.952 148.246,380.403 145.984,380.813 143.900 C 381.040 142.745,381.400 140.945,381.613 139.900 C 382.106 137.481,382.687 134.574,383.213 131.900 C 383.440 130.745,383.800 128.945,384.013 127.900 C 384.226 126.855,384.586 125.055,384.813 123.900 C 385.040 122.745,385.400 120.945,385.613 119.900 C 385.826 118.855,386.180 117.100,386.400 116.000 C 386.620 114.900,386.980 113.100,387.200 112.000 C 388.111 107.443,388.382 106.112,388.745 104.400 C 388.954 103.410,389.312 101.610,389.540 100.400 C 389.768 99.190,390.427 95.770,391.006 92.800 C 391.584 89.830,392.231 86.410,392.444 85.200 C 392.657 83.990,393.004 82.145,393.216 81.100 C 393.776 78.331,394.343 75.490,394.813 73.100 C 395.040 71.945,395.394 70.190,395.600 69.200 C 395.806 68.210,396.166 66.410,396.400 65.200 C 396.634 63.990,397.000 62.145,397.213 61.100 C 397.426 60.055,397.772 58.345,397.982 57.300 C 398.192 56.255,398.535 54.590,398.745 53.600 C 399.801 48.613,399.996 46.391,399.998 39.274 L 400.000 31.548 397.887 29.435 C 394.894 26.442,390.014 25.202,383.800 25.854 " stroke="none" fill="#ffffff" fill-rule="evenodd"></path><path id="path1" d="" stroke="none" fill="#ffffff" fill-rule="evenodd"></path></g></svg>