<svg id="svg" xmlns="http://www.w3.org/2000/svg" xmlns:xlink="http://www.w3.org/1999/xlink" width="400" height="400" viewBox="0, 0, 400,400" version="1.1"><g id="svgg"><path id="path0" d="M266.258 36.675 C 266.087 36.846,264.834 37.113,263.474 37.267 C 260.843 37.566,258.406 38.052,255.800 38.798 C 254.920 39.050,253.750 39.353,253.200 39.472 C 241.524 42.000,223.930 53.190,214.323 64.200 C 209.319 69.935,200.923 83.532,199.501 88.205 C 199.368 88.642,198.681 90.620,197.974 92.600 C 197.267 94.580,196.533 96.875,196.344 97.700 C 196.155 98.525,195.807 99.965,195.572 100.900 C 193.273 110.033,192.935 122.452,194.649 134.748 L 194.893 136.497 190.947 136.244 C 183.935 135.795,175.640 134.733,167.200 133.203 C 161.454 132.161,158.264 131.496,155.800 130.824 C 154.920 130.585,153.390 130.202,152.400 129.975 C 151.410 129.747,149.970 129.409,149.200 129.223 C 147.013 128.696,134.158 124.848,132.915 124.348 C 132.302 124.102,131.440 123.755,131.000 123.576 C 130.560 123.398,129.030 122.854,127.600 122.366 C 114.805 118.003,90.331 105.239,78.148 96.575 C 77.239 95.929,75.413 94.646,74.089 93.725 C 72.765 92.804,70.792 91.364,69.704 90.525 C 68.617 89.686,66.573 88.109,65.163 87.020 C 55.652 79.672,43.043 67.533,32.841 55.900 C 27.425 49.725,27.544 49.719,24.189 56.400 C 19.785 65.169,17.252 73.492,15.909 83.600 C 15.323 88.013,15.322 100.502,15.907 104.600 C 16.331 107.570,16.552 108.795,17.529 113.600 C 19.221 121.918,27.533 139.381,32.189 144.400 C 32.700 144.950,34.047 146.568,35.183 147.995 C 37.332 150.696,46.167 159.200,46.824 159.200 C 47.031 159.200,47.200 159.354,47.200 159.541 C 47.200 160.251,35.014 158.295,32.600 157.197 C 32.160 156.997,30.401 156.376,28.690 155.816 C 26.980 155.257,24.105 154.057,22.302 153.151 C 14.694 149.326,14.199 149.520,14.554 156.198 C 15.099 166.452,16.934 174.915,20.626 184.200 C 29.215 205.799,49.109 224.867,70.320 231.829 C 74.590 233.231,74.181 233.656,68.097 234.136 C 59.098 234.847,55.653 234.722,45.935 233.332 C 43.510 232.985,42.822 234.461,43.993 237.500 C 55.030 266.156,77.575 285.780,106.144 291.597 C 108.313 292.039,110.833 292.414,111.744 292.431 C 112.655 292.448,114.076 292.673,114.903 292.931 L 116.407 293.400 112.721 296.000 C 100.776 304.427,84.495 312.523,70.400 317.044 C 68.090 317.785,65.660 318.566,65.000 318.780 C 63.101 319.395,59.156 320.451,57.300 320.842 C 55.623 321.195,53.824 321.591,50.100 322.426 C 39.964 324.699,18.674 325.835,6.193 324.768 C 1.073 324.331,-0.763 324.473,0.411 325.215 C 0.810 325.467,0.838 325.590,0.500 325.594 C -4.081 325.650,14.486 336.943,30.600 343.903 C 38.462 347.298,43.450 349.307,46.654 350.368 C 48.604 351.014,51.744 352.085,53.632 352.748 C 56.816 353.866,61.467 355.224,64.800 356.009 C 65.570 356.191,68.090 356.819,70.400 357.405 C 72.710 357.991,75.680 358.650,77.000 358.868 C 79.710 359.316,82.851 359.880,85.800 360.450 C 89.214 361.110,92.450 361.590,96.400 362.023 C 98.490 362.252,101.820 362.637,103.800 362.878 C 108.545 363.456,142.659 363.449,149.200 362.868 C 151.950 362.624,155.550 362.244,157.200 362.025 C 158.850 361.806,161.550 361.452,163.200 361.240 C 165.971 360.883,168.109 360.523,172.800 359.624 C 173.790 359.434,175.770 359.072,177.200 358.820 C 181.014 358.147,191.162 355.707,194.000 354.781 C 194.550 354.601,196.350 354.058,198.000 353.574 C 202.042 352.388,203.863 351.802,206.000 350.999 C 206.990 350.627,208.790 349.962,210.000 349.522 C 211.210 349.082,212.560 348.581,213.000 348.408 C 216.991 346.840,219.849 345.647,222.302 344.526 C 223.898 343.797,225.287 343.200,225.388 343.200 C 227.663 343.200,249.941 330.428,260.600 323.013 C 295.156 298.975,326.632 259.334,341.603 221.000 C 342.548 218.580,343.474 216.429,343.661 216.220 C 343.847 216.011,344.000 215.604,344.000 215.316 C 344.000 215.027,344.344 214.028,344.764 213.096 C 346.856 208.456,351.880 192.842,353.612 185.600 C 353.796 184.830,354.143 183.480,354.383 182.600 C 354.622 181.720,355.011 180.010,355.246 178.800 C 355.482 177.590,355.821 175.880,356.000 175.000 C 358.953 160.504,360.002 149.971,360.262 132.180 L 360.449 119.360 364.281 116.380 C 375.747 107.462,385.235 98.021,393.400 87.404 C 399.810 79.068,399.985 78.784,399.993 76.700 C 400.002 74.316,400.166 74.312,393.543 76.837 C 390.604 77.957,386.760 79.323,385.000 79.871 C 383.240 80.420,380.810 81.189,379.600 81.581 C 376.398 82.617,372.371 83.679,368.800 84.428 C 367.590 84.682,366.187 85.050,365.681 85.245 C 365.176 85.440,364.243 85.600,363.607 85.600 C 362.972 85.600,361.965 85.785,361.371 86.011 C 359.385 86.766,359.918 86.106,363.894 82.886 C 372.894 75.597,380.685 65.668,385.938 54.793 C 392.518 41.167,391.929 40.426,379.504 46.716 C 374.607 49.194,370.470 51.217,370.312 51.211 C 370.153 51.205,369.070 51.636,367.905 52.169 C 363.577 54.149,352.259 58.109,348.000 59.135 C 347.010 59.373,344.248 60.039,341.863 60.614 L 337.526 61.661 335.263 59.619 C 325.879 51.153,317.609 45.777,308.800 42.415 C 306.930 41.702,305.040 40.975,304.600 40.799 C 301.454 39.546,295.643 38.064,290.200 37.126 C 287.291 36.625,266.696 36.237,266.258 36.675 M375.200 70.522 C 375.200 70.588,374.525 71.263,373.700 72.022 L 372.200 73.400 373.578 71.900 C 374.862 70.504,375.200 70.216,375.200 70.522 M16.676 87.100 C 16.575 87.485,16.493 87.170,16.493 86.400 C 16.493 85.630,16.575 85.315,16.676 85.700 C 16.776 86.085,16.776 86.715,16.676 87.100 M392.400 87.725 C 392.400 87.794,391.815 88.379,391.100 89.025 L 389.800 90.200 390.975 88.900 C 392.070 87.688,392.400 87.416,392.400 87.725 M387.600 93.322 C 387.600 93.388,386.925 94.063,386.100 94.822 L 384.600 96.200 385.978 94.700 C 387.262 93.304,387.600 93.016,387.600 93.322 M374.400 106.515 C 374.400 106.578,373.455 107.523,372.300 108.615 L 370.200 110.600 372.185 108.500 C 374.029 106.549,374.400 106.217,374.400 106.515 M194.687 115.495 C 194.595 116.103,194.517 115.700,194.514 114.600 C 194.511 113.500,194.587 113.003,194.682 113.495 C 194.777 113.986,194.779 114.886,194.687 115.495 M194.687 126.300 C 194.595 126.905,194.520 126.410,194.520 125.200 C 194.520 123.990,194.595 123.495,194.687 124.100 C 194.778 124.705,194.778 125.695,194.687 126.300 M39.200 151.000 C 39.946 151.770,40.467 152.400,40.357 152.400 C 40.247 152.400,39.546 151.770,38.800 151.000 C 38.054 150.230,37.533 149.600,37.643 149.600 C 37.753 149.600,38.454 150.230,39.200 151.000 M357.597 159.887 C 357.163 160.563,357.152 160.562,357.370 159.867 C 357.496 159.464,357.621 158.834,357.646 158.467 C 357.688 157.866,357.711 157.868,357.873 158.487 C 357.973 158.866,357.848 159.496,357.597 159.887 M109.800 291.200 C 110.571 291.531,110.569 291.545,109.724 291.572 C 109.242 291.587,108.736 291.420,108.600 291.200 C 108.308 290.727,108.699 290.727,109.800 291.200 M286.400 300.600 C 285.428 301.590,284.543 302.400,284.433 302.400 C 284.323 302.400,285.028 301.590,286.000 300.600 C 286.972 299.610,287.857 298.800,287.967 298.800 C 288.077 298.800,287.372 299.610,286.400 300.600 M260.600 322.000 C 260.202 322.440,259.679 322.796,259.438 322.791 C 259.197 322.786,259.450 322.430,260.000 322.000 C 261.288 320.992,261.512 320.992,260.600 322.000 M10.000 325.995 C 10.409 326.255,10.090 326.299,9.000 326.132 C 7.023 325.829,6.686 325.598,8.233 325.606 C 8.875 325.609,9.670 325.784,10.000 325.995 M30.767 325.746 C 30.376 326.088,25.617 326.296,25.823 325.962 C 25.947 325.763,27.147 325.600,28.490 325.600 C 29.834 325.600,30.858 325.666,30.767 325.746 " stroke="none" fill="#ffffff" fill-rule="evenodd"></path><path id="path1" d="M373.578 71.900 L 372.200 73.400 373.700 72.022 C 375.096 70.738,375.384 70.400,375.078 70.400 C 375.012 70.400,374.337 71.075,373.578 71.900 M16.493 86.400 C 16.493 87.170,16.575 87.485,16.676 87.100 C 16.776 86.715,16.776 86.085,16.676 85.700 C 16.575 85.315,16.493 85.630,16.493 86.400 M390.975 88.900 L 389.800 90.200 391.100 89.025 C 391.815 88.379,392.400 87.794,392.400 87.725 C 392.400 87.416,392.070 87.688,390.975 88.900 M385.978 94.700 L 384.600 96.200 386.100 94.822 C 387.496 93.538,387.784 93.200,387.478 93.200 C 387.412 93.200,386.737 93.875,385.978 94.700 M372.185 108.500 L 370.200 110.600 372.300 108.615 C 374.251 106.771,374.583 106.400,374.285 106.400 C 374.222 106.400,373.277 107.345,372.185 108.500 M194.514 114.600 C 194.517 115.700,194.595 116.103,194.687 115.495 C 194.779 114.886,194.777 113.986,194.682 113.495 C 194.587 113.003,194.511 113.500,194.514 114.600 M194.520 125.200 C 194.520 126.410,194.595 126.905,194.687 126.300 C 194.778 125.695,194.778 124.705,194.687 124.100 C 194.595 123.495,194.520 123.990,194.520 125.200 M38.800 151.000 C 39.546 151.770,40.247 152.400,40.357 152.400 C 40.467 152.400,39.946 151.770,39.200 151.000 C 38.454 150.230,37.753 149.600,37.643 149.600 C 37.533 149.600,38.054 150.230,38.800 151.000 M357.646 158.467 C 357.621 158.834,357.496 159.464,357.370 159.867 C 357.152 160.562,357.163 160.563,357.597 159.887 C 357.848 159.496,357.973 158.866,357.873 158.487 C 357.711 157.868,357.688 157.866,357.646 158.467 M108.600 291.200 C 108.736 291.420,109.242 291.587,109.724 291.572 C 110.569 291.545,110.571 291.531,109.800 291.200 C 108.699 290.727,108.308 290.727,108.600 291.200 M286.000 300.600 C 285.028 301.590,284.323 302.400,284.433 302.400 C 284.543 302.400,285.428 301.590,286.400 300.600 C 287.372 299.610,288.077 298.800,287.967 298.800 C 287.857 298.800,286.972 299.610,286.000 300.600 M260.000 322.000 C 259.450 322.430,259.197 322.786,259.438 322.791 C 259.679 322.796,260.202 322.440,260.600 322.000 C 261.512 320.992,261.288 320.992,260.000 322.000 M7.233 325.743 C 7.325 325.822,8.120 325.997,9.000 326.132 C 10.090 326.299,10.409 326.255,10.000 325.995 C 9.453 325.646,6.845 325.409,7.233 325.743 M25.823 325.962 C 25.617 326.296,30.376 326.088,30.767 325.746 C 30.858 325.666,29.834 325.600,28.490 325.600 C 27.147 325.600,25.947 325.763,25.823 325.962 " stroke="none" fill="#ffffff" fill-rule="evenodd"></path></g></svg>